# xmcd
#
# Track frame offsets:
#	150
#	14886
#	29562
#	47627
#	60734
#	72953
#	84753
#	100025
#	117284
#	131731
#
# Disc length: 1993 seconds
#
# Revision: 0
# Processed by: cddbd v1.4PL0 Copyright (c) Steve Scherf et al.
# Submitted via: dBpowerAMP V4.0
#
DISCID=8607c70a
DTITLE=Billy Earl McClelland - Judgement Day
DYEAR=1900
DGENRE=Blues
TTITLE0=the Power
TTITLE1=Let It Cry For You
TTITLE2=Slow Train
TTITLE3=Catchin Up on the Blues
TTITLE4=Raise Your Right Hand
TTITLE5=Satisfy Me
TTITLE6=You Can't Take It With You
TTITLE7=Judgement Day
TTITLE8=Bended Knee
TTITLE9=BGlues Blessin'
EXTD=
EXTT0=
EXTT1=
EXTT2=
EXTT3=
EXTT4=
EXTT5=
EXTT6=
EXTT7=
EXTT8=
EXTT9=
PLAYORDER=
